HIERARCHY
ROOT hips
{
  OFFSET 0 10.6860622 2.3727825e-15
  CHANNELS 6 Xposition Yposition Zposition Yrotation Xrotation Zrotation
  JOINT leftUpperLeg
  {
    OFFSET 0.6642549969 -0.9402397400000004 0
    CHANNELS 3 Yrotation Xrotation Zrotation
    JOINT leftLowerLeg
    {
      OFFSET 0 -3.997221335632195 0
      CHANNELS 3 Yrotation Xrotation Zrotation
      JOINT leftFoot
      {
        OFFSET -0.13777839790000004 -4.6145792000000005 -0.22186036399999998
        CHANNELS 3 Yrotation Xrotation Zrotation
        JOINT leftToes
        {
          OFFSET -0.03777410834999995 -0.9130806927000008 0.85230013
          CHANNELS 3 Yrotation Xrotation Zrotation
          End Site
          {
            OFFSET -0.03777410834999995 -0.9130806927000008 0.85230013
          }
        }
      }
    }
  }
  JOINT rightUpperLeg
  {
    OFFSET -0.6642778626 -0.9402397400000004 0
    CHANNELS 3 Yrotation Xrotation Zrotation
    JOINT rightLowerLeg
    {
      OFFSET 0 -3.997221452859387 0
      CHANNELS 3 Yrotation Xrotation Zrotation
      JOINT rightFoot
      {
        OFFSET 0.1377926176 -4.6145792000000005 -0.22185782299999995
        CHANNELS 3 Yrotation Xrotation Zrotation
        JOINT rightToes
        {
          OFFSET 0.037780746850000047 -0.9130806927000008 0.85230167
          CHANNELS 3 Yrotation Xrotation Zrotation
          End Site
          {
            OFFSET 0.037780746850000047 -0.9130806927000008 0.85230167
          }
        }
      }
    }
  }
  JOINT spine
  {
    OFFSET 0 0.13988381660000015 0
    CHANNELS 3 Yrotation Xrotation Zrotation
    JOINT chest
    {
      OFFSET 0 0.6191039003973773 0
      CHANNELS 3 Yrotation Xrotation Zrotation
      JOINT upperChest
      {
        OFFSET 0 0.9855186130586943 0
        CHANNELS 3 Yrotation Xrotation Zrotation
        JOINT leftShoulder
        {
          OFFSET 0.1807663869 1.5087829790000005 0
          CHANNELS 3 Yrotation Xrotation Zrotation
          JOINT leftUpperArm
          {
            OFFSET 0.5985063006419806 0 0
            CHANNELS 3 Yrotation Xrotation Zrotation
            JOINT leftLowerArm
            {
              OFFSET 2.2993332369501065 0 0
              CHANNELS 3 Yrotation Xrotation Zrotation
              JOINT leftHand
              {
                OFFSET 2.395047042602395 0 0
                CHANNELS 3 Yrotation Xrotation Zrotation
                JOINT leftIndexProximal
                {
                  OFFSET 0.5766295810000004 0.04556643899499946 0.17265095988184
                  CHANNELS 3 Yrotation Xrotation Zrotation
                  JOINT leftIndexIntermediate
                  {
                    OFFSET 0.2957229000000008 -0.019352197700001517 -0.007932640616999987
                    CHANNELS 3 Yrotation Xrotation Zrotation
                    JOINT leftIndexDistal
                    {
                      OFFSET 0.19008243099999922 -0.012484908149998475 -0.002786250786000012
                      CHANNELS 3 Yrotation Xrotation Zrotation
                      End Site
                      {
                        OFFSET 0.19008243099999922 -0.012484908149998475 -0.002786250786000012
                      }
                    }
                  }
                }
                JOINT leftMiddleProximal
                {
                  OFFSET 0.5834975091000001 0.0524350405149987 0.02204081888183999
                  CHANNELS 3 Yrotation Xrotation Zrotation
                  JOINT leftMiddleIntermediate
                  {
                    OFFSET 0.33880573540000003 -0.019871473270000717 -0.00000971183179999946
                    CHANNELS 3 Yrotation Xrotation Zrotation
                    JOINT leftMiddleDistal
                    {
                      OFFSET 0.20676022730000088 -0.012221336379999448 0.0001471936708000235
                      CHANNELS 3 Yrotation Xrotation Zrotation
                      End Site
                      {
                        OFFSET 0.20676022730000088 -0.012221336379999448 0.0001471936708000235
                      }
                    }
                  }
                }
                JOINT leftLittleProximal
                {
                  OFFSET 0.5344154683999995 -0.012880921405001189 -0.24414037221816004
                  CHANNELS 3 Yrotation Xrotation Zrotation
                  JOINT leftLittleIntermediate
                  {
                    OFFSET 0.21758961730000093 -0.011650919939999227 0.011893592810000034
                    CHANNELS 3 Yrotation Xrotation Zrotation
                    JOINT leftLittleDistal
                    {
                      OFFSET 0.1475273964999999 -0.008152365682999818 0.006001092492999946
                      CHANNELS 3 Yrotation Xrotation Zrotation
                      End Site
                      {
                        OFFSET 0.1475273964999999 -0.008152365682999818 0.006001092492999946
                      }
                    }
                  }
                }
                JOINT leftRingProximal
                {
                  OFFSET 0.5799399463000003 0.026911854694997794 -0.12150566991816003
                  CHANNELS 3 Yrotation Xrotation Zrotation
                  JOINT leftRingIntermediate
                  {
                    OFFSET 0.26167887460000006 -0.013480186499999602 0.010996293000000053
                    CHANNELS 3 Yrotation Xrotation Zrotation
                    JOINT leftRingDistal
                    {
                      OFFSET 0.17667108799999987 -0.008990287899999228 0.0055541023999999065
                      CHANNELS 3 Yrotation Xrotation Zrotation
                      End Site
                      {
                        OFFSET 0.17667108799999987 -0.008990287899999228 0.0055541023999999065
                      }
                    }
                  }
                }
                JOINT leftThumbProximal
                {
                  OFFSET 0.11018806699999972 -0.09448718900500053 0.17047963138184
                  CHANNELS 3 Yrotation Xrotation Zrotation
                  JOINT leftThumbIntermediate
                  {
                    OFFSET 0.31062601459999983 -0.08126270900000132 0.15443142000000007
                    CHANNELS 3 Yrotation Xrotation Zrotation
                    JOINT leftThumbDistal
                    {
                      OFFSET 0.21627175790000086 -0.08833193599999878 0.018771167799999988
                      CHANNELS 3 Yrotation Xrotation Zrotation
                      End Site
                      {
                        OFFSET 0.21627175790000086 -0.08833193599999878 0.018771167799999988
                      }
                    }
                  }
                }
              }
            }
          }
        }
        JOINT neck
        {
          OFFSET 0 1.5463305265074576 0
          CHANNELS 3 Yrotation Xrotation Zrotation
          JOINT head
          {
            OFFSET 0 0.8456443600000344 0
            CHANNELS 3 Yrotation Xrotation Zrotation
            JOINT leftEye
            {
              OFFSET 0.30408573140000006 0.5104519199999995 0.1276382305
              CHANNELS 3 Yrotation Xrotation Zrotation
              End Site
              {
                OFFSET 0.30408573140000006 0.5104519199999995 0.1276382305
              }
            }
            JOINT rightEye
            {
              OFFSET -0.30409491089999996 0.5104519199999995 0.1276379445
              CHANNELS 3 Yrotation Xrotation Zrotation
              End Site
              {
                OFFSET -0.30409491089999996 0.5104519199999995 0.1276379445
              }
            }
            JOINT jaw
            {
              OFFSET -3.155239131000001e-7 -0.11984121820000082 0.60178107
              CHANNELS 3 Yrotation Xrotation Zrotation
              End Site
              {
                OFFSET -3.155239131000001e-7 -0.11984121820000082 0.60178107
              }
            }
          }
        }
        JOINT rightShoulder
        {
          OFFSET -0.1807303465 1.5087829790000005 0
          CHANNELS 3 Yrotation Xrotation Zrotation
          JOINT rightUpperArm
          {
            OFFSET -0.5985063796536958 0 0
            CHANNELS 3 Yrotation Xrotation Zrotation
            JOINT rightLowerArm
            {
              OFFSET -2.2993322059002854 0 0
              CHANNELS 3 Yrotation Xrotation Zrotation
              JOINT rightHand
              {
                OFFSET -2.395045314457259 0 0
                CHANNELS 3 Yrotation Xrotation Zrotation
                JOINT rightIndexProximal
                {
                  OFFSET -0.5764487688300002 0.0441371204405987 0.17361932004999997
                  CHANNELS 3 Yrotation Xrotation Zrotation
                  JOINT rightIndexIntermediate
                  {
                    OFFSET -0.29573011380000047 -0.01934826376999843 -0.007698921482999974
                    CHANNELS 3 Yrotation Xrotation Zrotation
                    JOINT rightIndexDistal
                    {
                      OFFSET -0.19008373999999884 -0.012503266380000655 -0.0026365778999999897
                      CHANNELS 3 Yrotation Xrotation Zrotation
                      End Site
                      {
                        OFFSET -0.19008373999999884 -0.012503266380000655 -0.0026365778999999897
                      }
                    }
                  }
                }
                JOINT rightMiddleProximal
                {
                  OFFSET -0.5834852037300005 0.05211639405060153 0.02307162440000001
                  CHANNELS 3 Yrotation Xrotation Zrotation
                  JOINT rightMiddleIntermediate
                  {
                    OFFSET -0.33880114510000003 -0.019952774050000954 0.0002455003561999819
                    CHANNELS 3 Yrotation Xrotation Zrotation
                    JOINT rightMiddleDistal
                    {
                      OFFSET -0.20675694929999955 -0.012273788999999091 0.00030209124000002766
                      CHANNELS 3 Yrotation Xrotation Zrotation
                      End Site
                      {
                        OFFSET -0.20675694929999955 -0.012273788999999091 0.00030209124000002766
                      }
                    }
                  }
                }
                JOINT rightLittleProximal
                {
                  OFFSET -0.5346811737299992 -0.011214256288399227 -0.24363941305000003
                  CHANNELS 3 Yrotation Xrotation Zrotation
                  JOINT rightLittleIntermediate
                  {
                    OFFSET -0.21757715980000092 -0.011771559690000988 0.01201554387
                    CHANNELS 3 Yrotation Xrotation Zrotation
                    JOINT rightLittleDistal
                    {
                      OFFSET -0.1475201849000004 -0.00822055339600003 0.006082065407000015
                      CHANNELS 3 Yrotation Xrotation Zrotation
                      End Site
                      {
                        OFFSET -0.1475201849000004 -0.00822055339600003 0.006082065407000015
                      }
                    }
                  }
                }
                JOINT rightRingProximal
                {
                  OFFSET -0.5800810755299999 0.027657985680600072 -0.12066365025000003
                  CHANNELS 3 Yrotation Xrotation Zrotation
                  JOINT rightRingIntermediate
                  {
                    OFFSET -0.26166445029999974 -0.013623118409999302 0.011164098990000045
                    CHANNELS 3 Yrotation Xrotation Zrotation
                    JOINT rightRingDistal
                    {
                      OFFSET -0.17666387530000027 -0.009072900100000503 0.005668185599999959
                      CHANNELS 3 Yrotation Xrotation Zrotation
                      End Site
                      {
                        OFFSET -0.17666387530000027 -0.009072900100000503 0.005668185599999959
                      }
                    }
                  }
                }
                JOINT rightThumbProximal
                {
                  OFFSET -0.10997596379000074 -0.09577489355940072 0.16989765924999997
                  CHANNELS 3 Yrotation Xrotation Zrotation
                  JOINT rightThumbIntermediate
                  {
                    OFFSET -0.31036620999999986 -0.08229339117999834 0.15440884469999996
                    CHANNELS 3 Yrotation Xrotation Zrotation
                    JOINT rightThumbDistal
                    {
                      OFFSET -0.21631306399999906 -0.08825326400000111 0.018656797720000014
                      CHANNELS 3 Yrotation Xrotation Zrotation
                      End Site
                      {
                        OFFSET -0.21631306399999906 -0.08825326400000111 0.018656797720000014
                      }
                    }
                  }
                }
              }
            }
          }
        }
      }
    }
  }
}
MOTION
Frames: 6
Frame Time: 0.03333333333333333
-6.979101120381856 1.735704627796338 0 7.069345783237309e-15 6.99616987504882 -180 8.211531668348545 -55.40263637417702 9.641331934570408 -168.47410010674412 77.60108508211363 141.00041174815402 -28.260659409066736 29.43646456854604 18.928447209332578 0 0 0 -14.56163135695964 -64.98254708180177 -13.781198258046572 137.53718240360442 78.12139016590724 -173.17526150568887 27.638380146870944 30.624488112352996 -14.211659387918546 0 0 0 -0.2693662933807831 -9.898657856329763 -0.0985206367417301 -0.8508720130886869 6.143559387590306 -0.651927158020765 0 0 0 33.24830174171785 7.050797840562622 -14.022731398292008 -79.80740508785259 0.3212529073761766 1.5770189337431426 -74.1207774115205 -21.03865243802144 -6.136542487801891 4.011525988940457 -51.52865622999457 -20.85801402578251 0 0 0 0 0 0 0 0 0 0 0 0 0 0 0 0 0 0 0 0 0 0 0 0 0 0 0 0 0 0 0 0 0 0 0 0 0 0 0 0 0 0 0 0 0 0 35.05817589700529 0 0 -76.31729336541616 0 0 0 0 0 0 0 0 0 0 -32.92033432668901 3.323892029727974 15.024109313959116 85.65214447887438 6.7232430808335275 1.5511909878325743 72.91573750001663 -20.452677358511583 3.00388416929111 -3.744290524487624 -50.79711968189938 25.361837964879363 0 0 0 0 0 0 0 0 0 0 0 0 0 0 0 0 0 0 0 0 0 0 0 0 0 0 0 0 0 0 0 0 0 0 0 0 0 0 0 0 0 0 0 0 0
-6.979101120381856 1.735704627796338 0 7.069345783237309e-15 6.99616987504882 -180 7.790232113432077 -55.57629120960923 9.812480826605073 -168.47410010674412 77.60108508211363 141.00041174815402 -28.18807426614592 29.328432365642346 18.637856974521295 0 0 0 -14.371691127709665 -65.04433165577457 -13.883193908786396 137.53718240360442 78.12139016590724 -173.17526150568887 27.609612228731894 30.569657301795644 -14.108744617522538 0 0 0 -0.2693662933807831 -9.898657856329763 -0.0985206367417301 -0.8500893505153759 5.644286926898094 -0.644448472514191 0 0 0 32.33631920658307 7.202445780177564 -14.02544860175808 -79.63416219033857 0.5580320224164145 1.5018812166029345 -73.33769445594447 -20.994370360537832 -6.115546562082722 4.152539162294121 -51.48198714607785 -21.111490571704426 0 0 0 0 0 0 0 0 0 0 0 0 0 0 0 0 0 0 0 0 0 0 0 0 0 0 0 0 0 0 0 0 0 0 0 0 0 0 0 0 0 0 0 0 0 0 34.824891576434815 0 0 -74.9641750217345 0 0 0 0 0 0 0 0 0 0 -32.01609749904691 3.604369336248805 14.999331510912565 84.78540989836361 7.074153723247652 1.7068362108701909 72.52813379315351 -20.433594042544616 3.0182076198505277 -3.78940674422032 -50.744777250814145 25.591767687378674 0 0 0 0 0 0 0 0 0 0 0 0 0 0 0 0 0 0 0 0 0 0 0 0 0 0 0 0 0 0 0 0 0 0 0 0 0 0 0 0 0 0 0 0 0
-6.979101120381856 1.735704627796338 0 7.069345783237309e-15 6.99616987504882 -180 7.366144347404267 -55.749230801929315 9.986654684476209 -168.47410010674412 77.60108508211363 141.00041174815402 -28.11493820601596 29.220721875321455 18.34741720453863 0 0 0 -14.181048942657767 -65.10597577328681 -13.985910914847445 137.53718240360442 78.12139016590724 -173.17526150568887 27.58074907418297 30.514869360451257 -14.005857007326263 0 0 0 -0.2693662933807831 -9.898657856329763 -0.0985206367417301 -0.8493728089151369 5.145014617691516 -0.6369827939280054 0 0 0 31.424017789535206 7.354031257353178 -14.030599511353774 -79.46122250725585 0.7950370674649643 1.4274560736286859 -72.55482714528696 -20.95036104863686 -6.093911225101061 4.293074804057484 -51.434927517871024 -21.36452177893507 0 0 0 0 0 0 0 0 0 0 0 0 0 0 0 0 0 0 0 0 0 0 0 0 0 0 0 0 0 0 0 0 0 0 0 0 0 0 0 0 0 0 0 0 0 0 34.59160655386433 0 0 -73.6110497907196 0 0 0 0 0 0 0 0 0 0 -31.11168960283192 3.8852020740737983 14.978984210308813 83.91896202457646 7.42736150952659 1.8572323276358451 72.14058310490492 -20.41442199537939 3.032391105690051 -3.8341400620570147 -50.69232075775592 25.821371895895815 0 0 0 0 0 0 0 0 0 0 0 0 0 0 0 0 0 0 0 0 0 0 0 0 0 0 0 0 0 0 0 0 0 0 0 0 0 0 0 0 0 0 0 0 0
-6.979101120381856 1.735704627796338 0 7.069345783237309e-15 6.99616987504882 -180 6.50912023342316 -56.0930302272798 10.344338836722585 -168.47410010674412 77.60108508211363 141.00041174815402 -27.966976574627672 29.0061960345231 17.766738265418994 0 0 0 -13.797614753396065 -65.22883085157247 -14.19353603656358 137.53723866742513 78.12137357481194 -173.17519998190446 27.5227229981827 30.40542159571815 -13.800149502720254 0 0 0 -0.2693662933807831 -9.898657856329763 -0.0985206367417301 -0.848135038812316 4.145631247789725 -0.6220729591823985 0 0 0 29.593143995314545 7.657741146251035 -14.048283071756785 -79.1160299994265 1.2698598174615234 1.2807029406298551 -70.98641409565867 -20.863002504299118 -6.048644565558177 4.572724080374773 -51.33963039623562 -21.869283218759847 0 0 0 0 0 0 0 0 0 0 0 0 0 0 0 0 0 0 0 0 0 0 0 0 0 0 0 0 0 0 0 0 0 0 0 0 0 0 0 0 0 0 0 0 0 0 34.12495717210005 0 0 -70.88774050892562 0 0 0 0 0 0 0 0 0 0 -29.29665375418303 4.449371189425587 14.951560037817268 82.1862617423264 8.140553072878687 2.142193384158728 71.36526090383535 -20.37578997333693 3.060353392480111 -3.922474465595825 -50.58705618049076 26.279683176632727 0 0 0 0 0 0 0 0 0 0 0 0 0 0 0 0 0 0 0 0 0 0 0 0 0 0 0 0 0 0 0 0 0 0 0 0 0 0 0 0 0 0 0 0 0
-6.979101120381856 1.735704627796338 0 7.069345783237309e-15 6.99616987504882 -180 6.07614763739824 -56.263843825029106 10.527903416252853 -168.47410010674412 77.60108508211363 141.00041174815402 -27.89214798219518 28.8993897737262 17.476514439542296 0 0 0 -13.60482328399441 -65.29004810740565 -14.29845433576338 137.5372106653634 78.12137357481194 -173.17523048638236 27.49356191599624 30.35076548630315 -13.697328036645688 0 0 0 -0.2693662933807831 -9.898657856329763 -0.0985206367417301 -0.8476146717043362 3.645597310275444 -0.614628204402481 0 0 0 28.675002404883166 7.809706919159345 -14.060829628804191 -78.94383769475024 1.5076607628532912 1.2083693141708152 -70.20114956564437 -20.819689373546403 -6.025022083586546 4.711839041067309 -51.2914116679077 -22.12101438684086 0 0 0 0 0 0 0 0 0 0 0 0 0 0 0 0 0 0 0 0 0 0 0 0 0 0 0 0 0 0 0 0 0 0 0 0 0 0 0 0 0 0 0 0 0 0 33.89160201258968 0 0 -69.519037408027 0 0 0 0 0 0 0 0 0 0 -28.386435300725356 4.732418066841384 14.944556945401466 81.32028295221828 8.500162577495965 2.2766287996531345 70.97753405080957 -20.356337351398693 3.0741256947607685 -3.9660783766857253 -50.53425416627737 26.508387717689224 0 0 0 0 0 0 0 0 0 0 0 0 0 0 0 0 0 0 0 0 0 0 0 0 0 0 0 0 0 0 0 0 0 0 0 0 0 0 0 0 0 0 0 0 0
-6.979101120381856 1.735704627796338 0 7.069345783237309e-15 6.99616987504882 -180 5.640249234962918 -56.433879174434225 10.714620724571224 -168.47410010674412 77.60108508211363 141.00041174815402 -27.816783438345208 28.792915428341402 17.18642723405141 0 0 0 -13.411316356626198 -65.35110485612242 -14.404109305377295 137.53718240360442 78.12139016590724 -173.17526150568887 27.46430574688671 30.296151754683358 -13.594531523233417 0 0 0 -0.2693662933807831 -9.898657856329763 -0.0985206367417301 -0.8471596096683561 3.1455629455191003 -0.6071918514984123 0 0 0 27.756491604967625 7.9614547138177425 -14.07583846817133 -78.77192450966075 1.7456777409088187 1.1367424107086852 -69.41609070523225 -20.776684552223713 -6.000774253801596 4.850468159521652 -51.242801646478384 -22.37228962394662 0 0 0 0 0 0 0 0 0 0 0 0 0 0 0 0 0 0 0 0 0 0 0 0 0 0 0 0 0 0 0 0 0 0 0 0 0 0 0 0 0 0 0 0 0 0 33.658247612311165 0 0 -68.1503286235546 0 0 0 0 0 0 0 0 0 0 -27.4758632349767 5.015540467270383 14.942065876597576 80.45432827117335 8.861741123411925 2.405677518840158 70.5898594513689 -20.336799768603854 3.0877558600445347 -4.009302490245568 -50.481344815014864 26.736776310774477 0 0 0 0 0 0 0 0 0 0 0 0 0 0 0 0 0 0 0 0 0 0 0 0 0 0 0 0 0 0 0 0 0 0 0 0 0 0 0 0 0 0 0 0 0
